<mxfile host="65bd71144e">
    <diagram id="QRlOaEcI3eAQjHxyDdCS" name="第1頁">
        <mxGraphModel dx="1055" dy="565" grid="1" gridSize="10" guides="1" tooltips="1" connect="1" arrows="1" fold="1" page="1" pageScale="1" pageWidth="850" pageHeight="1100" math="0" shadow="0">
            <root>
                <mxCell id="0"/>
                <mxCell id="1" parent="0"/>
                <mxCell id="20" value="" style="rounded=1;whiteSpace=wrap;html=1;" vertex="1" parent="1">
                    <mxGeometry x="70" y="220" width="160" height="255" as="geometry"/>
                </mxCell>
                <mxCell id="21" value="Users" style="text;strokeColor=none;fillColor=none;html=1;fontSize=24;fontStyle=1;verticalAlign=middle;align=center;" vertex="1" parent="1">
                    <mxGeometry x="100" y="140" width="100" height="40" as="geometry"/>
                </mxCell>
                <mxCell id="22" value="第三方登入" style="text;strokeColor=none;fillColor=none;html=1;fontSize=24;fontStyle=1;verticalAlign=middle;align=center;" vertex="1" parent="1">
                    <mxGeometry x="100" y="170" width="100" height="40" as="geometry"/>
                </mxCell>
                <mxCell id="23" value="蕃茄鐘" style="rounded=1;whiteSpace=wrap;html=1;fillColor=none;" vertex="1" parent="1">
                    <mxGeometry x="80" y="240" width="140" height="40" as="geometry"/>
                </mxCell>
                <mxCell id="24" value="動物" style="rounded=1;whiteSpace=wrap;html=1;fillColor=none;" vertex="1" parent="1">
                    <mxGeometry x="80" y="412.5" width="140" height="40" as="geometry"/>
                </mxCell>
                <mxCell id="26" value="專注的UUID&lt;br&gt;專注長度&lt;br&gt;番茄鐘有無完成（僅需記錄有完成）&lt;br&gt;開始當下的時間（用伺服器時間）&lt;br&gt;結束當下的時間（用伺服器時間）&lt;br&gt;To-do的任務（使用array包物件）" style="rounded=1;whiteSpace=wrap;html=1;fillColor=none;" vertex="1" parent="1">
                    <mxGeometry x="290" y="227.5" width="210" height="112.5" as="geometry"/>
                </mxCell>
                <mxCell id="27" value="&lt;span style=&quot;font-kerning: none;&quot; class=&quot;OYPEnA font-feature-liga-off font-feature-clig-off font-feature-calt-off text-decoration-none text-strikethrough-none&quot;&gt;To-do List&lt;/span&gt;" style="rounded=1;whiteSpace=wrap;html=1;fillColor=none;" vertex="1" parent="1">
                    <mxGeometry x="80" y="290" width="140" height="40" as="geometry"/>
                </mxCell>
                <mxCell id="28" value="" style="endArrow=none;html=1;fontColor=#F0F0F0;exitX=1;exitY=0.5;exitDx=0;exitDy=0;entryX=0;entryY=0.5;entryDx=0;entryDy=0;" edge="1" parent="1" source="23" target="26">
                    <mxGeometry width="50" height="50" relative="1" as="geometry">
                        <mxPoint x="360" y="280" as="sourcePoint"/>
                        <mxPoint x="410" y="230" as="targetPoint"/>
                    </mxGeometry>
                </mxCell>
                <mxCell id="30" value="" style="endArrow=none;html=1;fontColor=#F0F0F0;exitX=1;exitY=0.5;exitDx=0;exitDy=0;entryX=0;entryY=0.5;entryDx=0;entryDy=0;" edge="1" parent="1" source="27" target="26">
                    <mxGeometry width="50" height="50" relative="1" as="geometry">
                        <mxPoint x="310" y="360" as="sourcePoint"/>
                        <mxPoint x="370" y="345" as="targetPoint"/>
                    </mxGeometry>
                </mxCell>
                <mxCell id="35" value="動物的UUID&lt;br&gt;專注的UUID&lt;br&gt;To-do的任務" style="rounded=1;whiteSpace=wrap;html=1;fillColor=none;" vertex="1" parent="1">
                    <mxGeometry x="320" y="395" width="140" height="75" as="geometry"/>
                </mxCell>
                <mxCell id="36" value="" style="endArrow=none;html=1;fontColor=#F0F0F0;exitX=1;exitY=0.5;exitDx=0;exitDy=0;entryX=0;entryY=0.5;entryDx=0;entryDy=0;" edge="1" parent="1" source="24" target="35">
                    <mxGeometry width="50" height="50" relative="1" as="geometry">
                        <mxPoint x="130" y="390" as="sourcePoint"/>
                        <mxPoint x="180" y="340" as="targetPoint"/>
                    </mxGeometry>
                </mxCell>
                <mxCell id="37" value="統計數據" style="rounded=1;whiteSpace=wrap;html=1;fillColor=none;" vertex="1" parent="1">
                    <mxGeometry x="80" y="340" width="140" height="40" as="geometry"/>
                </mxCell>
                <mxCell id="39" value="" style="endArrow=none;html=1;fontColor=#F0F0F0;exitX=1;exitY=0.5;exitDx=0;exitDy=0;entryX=0;entryY=0.5;entryDx=0;entryDy=0;" edge="1" parent="1" source="37" target="26">
                    <mxGeometry width="50" height="50" relative="1" as="geometry">
                        <mxPoint x="240" y="365" as="sourcePoint"/>
                        <mxPoint x="290" y="280" as="targetPoint"/>
                    </mxGeometry>
                </mxCell>
                <mxCell id="40" value="[{title:&quot;homework&quot;, isDone:true, doneTime:（按下結束鈕的伺服器時間）},&lt;br&gt;{title: &quot;coding&quot; , isDone:false}]" style="text;strokeColor=none;fillColor=none;html=1;fontSize=24;fontStyle=1;verticalAlign=middle;align=center;fontColor=#F0F0F0;" vertex="1" parent="1">
                    <mxGeometry x="570" y="60" width="530" height="40" as="geometry"/>
                </mxCell>
                <mxCell id="41" value="" style="endArrow=classic;html=1;fontColor=#F0F0F0;entryX=0;entryY=0.5;entryDx=0;entryDy=0;exitX=1;exitY=0.844;exitDx=0;exitDy=0;exitPerimeter=0;" edge="1" parent="1" source="26" target="42">
                    <mxGeometry width="50" height="50" relative="1" as="geometry">
                        <mxPoint x="500" y="325" as="sourcePoint"/>
                        <mxPoint x="590" y="255" as="targetPoint"/>
                    </mxGeometry>
                </mxCell>
                <mxCell id="43" value="example" style="edgeLabel;html=1;align=center;verticalAlign=middle;resizable=0;points=[];fontColor=#F0F0F0;" vertex="1" connectable="0" parent="41">
                    <mxGeometry x="-0.2519" relative="1" as="geometry">
                        <mxPoint as="offset"/>
                    </mxGeometry>
                </mxCell>
                <mxCell id="42" value="&lt;div style=&quot;background-color: rgb(31, 31, 31); font-family: Consolas, &amp;quot;Courier New&amp;quot;, monospace; font-weight: normal; font-size: 14px; line-height: 19px;&quot;&gt;&lt;div style=&quot;&quot;&gt;&lt;div style=&quot;line-height: 19px;&quot;&gt;&lt;div style=&quot;color: rgb(204, 204, 204);&quot;&gt;[&lt;/div&gt;&lt;div style=&quot;color: rgb(204, 204, 204);&quot;&gt;&amp;nbsp; {&lt;/div&gt;&lt;div style=&quot;color: rgb(204, 204, 204);&quot;&gt;&amp;nbsp; &amp;nbsp; &lt;span style=&quot;color: #9cdcfe;&quot;&gt;&quot;title&quot;&lt;/span&gt;: &lt;span style=&quot;color: #ce9178;&quot;&gt;&quot;homework&quot;&lt;/span&gt;,&lt;/div&gt;&lt;div style=&quot;&quot;&gt;&lt;span style=&quot;color: rgb(204, 204, 204);&quot;&gt;&amp;nbsp; &amp;nbsp; &lt;span style=&quot;color: #9cdcfe;&quot;&gt;&quot;isDone&quot;&lt;/span&gt;: &lt;/span&gt;&lt;font color=&quot;#569cd6&quot;&gt;true&lt;/font&gt;&lt;/div&gt;&lt;div style=&quot;&quot;&gt;&lt;div style=&quot;color: rgb(204, 204, 204);&quot;&gt;&amp;nbsp; &amp;nbsp;&amp;nbsp;&lt;span style=&quot;color: rgb(156, 220, 254);&quot;&gt;&quot;startTime&quot;&lt;/span&gt;:&amp;nbsp;&lt;span style=&quot;color: rgb(206, 145, 120);&quot;&gt;&quot;（&lt;/span&gt;&lt;span style=&quot;color: rgb(206, 145, 120);&quot;&gt;開始倒數的時間&lt;/span&gt;&lt;span style=&quot;color: rgb(206, 145, 120);&quot;&gt;）&quot;,&lt;/span&gt;&lt;br&gt;&lt;/div&gt;&lt;div style=&quot;color: rgb(204, 204, 204);&quot;&gt;&lt;div&gt;&amp;nbsp; &amp;nbsp;&amp;nbsp;&lt;span style=&quot;color: rgb(156, 220, 254);&quot;&gt;&quot;doneTime&quot;&lt;/span&gt;:&amp;nbsp;&lt;span style=&quot;color: rgb(206, 145, 120);&quot;&gt;&quot;（按下結束鈕的伺服器時間）&quot;,&lt;/span&gt;&lt;/div&gt;&lt;/div&gt;&lt;/div&gt;&lt;div style=&quot;color: rgb(204, 204, 204);&quot;&gt;&amp;nbsp; },&lt;/div&gt;&lt;div style=&quot;color: rgb(204, 204, 204);&quot;&gt;&amp;nbsp; {&lt;/div&gt;&lt;div style=&quot;color: rgb(204, 204, 204);&quot;&gt;&amp;nbsp; &amp;nbsp; &lt;span style=&quot;color: #9cdcfe;&quot;&gt;&quot;title&quot;&lt;/span&gt;: &lt;span style=&quot;color: #ce9178;&quot;&gt;&quot;coding&quot;&lt;/span&gt;,&lt;/div&gt;&lt;div style=&quot;color: rgb(204, 204, 204);&quot;&gt;&amp;nbsp; &amp;nbsp; &lt;span style=&quot;color: #9cdcfe;&quot;&gt;&quot;isDone&quot;&lt;/span&gt;: ,&lt;/div&gt;&lt;div style=&quot;color: rgb(204, 204, 204);&quot;&gt;&amp;nbsp; &amp;nbsp;&amp;nbsp;&lt;span style=&quot;color: rgb(156, 220, 254);&quot;&gt;&quot;startTime&quot;&lt;/span&gt;:&amp;nbsp;&lt;span style=&quot;color: rgb(206, 145, 120);&quot;&gt;&quot;&lt;/span&gt;&lt;span style=&quot;color: rgb(206, 145, 120);&quot;&gt;（上一個任務按下結束鈕的伺服器時間）&lt;/span&gt;&lt;span style=&quot;color: rgb(206, 145, 120);&quot;&gt;&quot;,&lt;/span&gt;&lt;br&gt;&lt;/div&gt;&lt;div style=&quot;color: rgb(204, 204, 204);&quot;&gt;&lt;div&gt;&lt;div&gt;&amp;nbsp; &amp;nbsp;&amp;nbsp;&lt;span style=&quot;color: rgb(156, 220, 254);&quot;&gt;&quot;doneTime&quot;&lt;/span&gt;:&amp;nbsp;&lt;span style=&quot;color: rgb(206, 145, 120);&quot;&gt;&quot;（按下結束鈕的伺服器時間）&quot;,&lt;/span&gt;&lt;/div&gt;&lt;div&gt;&lt;/div&gt;&lt;/div&gt;&lt;div&gt;&lt;/div&gt;&lt;div&gt;&amp;nbsp; }&lt;br&gt;&lt;/div&gt;&lt;div&gt;&lt;br&gt;&lt;/div&gt;&lt;/div&gt;&lt;div style=&quot;color: rgb(204, 204, 204);&quot;&gt;]&lt;/div&gt;&lt;br&gt;&lt;/div&gt;&lt;/div&gt;&lt;/div&gt;" style="text;whiteSpace=wrap;html=1;fontColor=#F0F0F0;" vertex="1" parent="1">
                    <mxGeometry x="630" y="188.75" width="430" height="190" as="geometry"/>
                </mxCell>
            </root>
        </mxGraphModel>
    </diagram>
</mxfile>